<svg xmlns="http://www.w3.org/2000/svg" viewBox="0 0 78 72"><path d="M0.5 0h0M1.5 0h0M2.5 0h0M3.5 0h0M12.5 0h0M13.5 0h0M14.5 0h0M28.5 0h0M29.5 0h0M30.5 0h0M31.5 0h0M59.5 0h0M60.5 0h0M61.5 0h0M62.5 0h0M63.5 0h0M64.5 0h0M68.5 0h0M69.5 0h0M70.5 0h0M71.5 0h0M72.5 0h0M73.5 0h0M74.5 0h0M75.5 0h0M76.5 0h0M77.5 0h0M0 0.87h0M1 0.87h0M2 0.87h0M3 0.87h0M13 0.87h0M14 0.87h0M15 0.87h0M29 0.87h0M30 0.87h0M31 0.87h0M59 0.87h0M60 0.87h0M61 0.87h0M62 0.87h0M63 0.87h0M64 0.87h0M65 0.87h0M68 0.87h0M69 0.87h0M70 0.87h0M71 0.87h0M72 0.87h0M73 0.87h0M74 0.87h0M75 0.87h0M76 0.87h0M77 0.87h0M0.5 1.73h0M1.5 1.73h0M2.5 1.73h0M12.5 1.73h0M13.5 1.73h0M14.5 1.73h0M15.5 1.73h0M16.5 1.73h0M30.5 1.73h0M31.5 1.73h0M59.5 1.73h0M60.5 1.73h0M61.5 1.73h0M62.5 1.73h0M63.5 1.73h0M64.5 1.73h0M65.5 1.73h0M68.5 1.73h0M69.5 1.73h0M70.5 1.73h0M71.5 1.73h0M72.5 1.73h0M73.5 1.73h0M74.5 1.73h0M75.5 1.73h0M76.5 1.73h0M77.5 1.73h0M0 2.6h0M1 2.6h0M2 2.6h0M13 2.6h0M14 2.6h0M15 2.6h0M16 2.6h0M20 2.6h0M59 2.6h0M60 2.6h0M61 2.6h0M62 2.6h0M63 2.6h0M64 2.6h0M65 2.6h0M66 2.6h0M72 2.6h0M73 2.6h0M74 2.6h0M75 2.6h0M76 2.6h0M77 2.6h0M0.5 3.46h0M1.5 3.46h0M2.5 3.46h0M12.5 3.46h0M13.5 3.46h0M14.5 3.46h0M15.5 3.46h0M16.5 3.46h0M19.5 3.46h0M59.5 3.46h0M60.5 3.46h0M62.5 3.46h0M63.5 3.46h0M64.5 3.46h0M65.5 3.46h0M69.5 3.46h0M70.5 3.46h0M71.5 3.46h0M72.5 3.46h0M73.5 3.46h0M74.5 3.46h0M75.5 3.46h0M76.5 3.46h0M77.5 3.46h0M0 4.33h0M1 4.33h0M2 4.33h0M3 4.33h0M13 4.33h0M14 4.33h0M15 4.33h0M16 4.33h0M17 4.33h0M18 4.33h0M19 4.33h0M20 4.33h0M53 4.33h0M63 4.33h0M64 4.33h0M65 4.33h0M70 4.33h0M71 4.33h0M72 4.33h0M73 4.33h0M74 4.33h0M75 4.33h0M76 4.33h0M77 4.33h0M0.5 5.2h0M1.5 5.2h0M2.5 5.2h0M3.5 5.2h0M13.5 5.2h0M14.5 5.2h0M15.5 5.2h0M16.5 5.2h0M17.5 5.2h0M18.5 5.2h0M19.5 5.2h0M20.5 5.2h0M52.5 5.2h0M53.5 5.2h0M54.5 5.2h0M61.5 5.2h0M62.5 5.2h0M63.5 5.2h0M64.5 5.2h0M68.5 5.2h0M69.5 5.2h0M70.5 5.2h0M71.5 5.2h0M72.5 5.2h0M73.5 5.2h0M74.5 5.2h0M75.5 5.2h0M76.5 5.2h0M77.5 5.2h0M0 6.06h0M1 6.06h0M2 6.06h0M3 6.06h0M4 6.06h0M5 6.06h0M6 6.06h0M14 6.06h0M15 6.06h0M16 6.06h0M17 6.06h0M18 6.06h0M19 6.06h0M20 6.06h0M21 6.06h0M53 6.06h0M54 6.06h0M61 6.06h0M63 6.06h0M64 6.06h0M68 6.06h0M69 6.06h0M70 6.06h0M71 6.06h0M72 6.06h0M73 6.06h0M74 6.06h0M75 6.06h0M76 6.06h0M77 6.06h0M0.5 6.93h0M1.5 6.93h0M2.5 6.93h0M3.5 6.93h0M4.5 6.93h0M5.5 6.93h0M6.5 6.93h0M7.5 6.93h0M13.5 6.93h0M14.5 6.93h0M15.5 6.93h0M16.5 6.93h0M17.5 6.93h0M18.5 6.93h0M19.5 6.93h0M20.5 6.93h0M21.5 6.93h0M53.5 6.93h0M54.5 6.93h0M60.5 6.93h0M62.5 6.93h0M63.5 6.93h0M68.5 6.93h0M69.5 6.93h0M70.5 6.93h0M71.5 6.93h0M72.5 6.93h0M73.5 6.93h0M74.5 6.93h0M75.5 6.93h0M76.5 6.93h0M77.5 6.93h0M0 7.79h0M1 7.79h0M2 7.79h0M3 7.79h0M4 7.79h0M5 7.79h0M6 7.79h0M7 7.79h0M8 7.79h0M9 7.79h0M12 7.79h0M13 7.79h0M14 7.79h0M15 7.79h0M16 7.79h0M17 7.79h0M18 7.79h0M19 7.79h0M20 7.79h0M21 7.79h0M22 7.79h0M23 7.79h0M52 7.79h0M54 7.79h0M55 7.79h0M61 7.79h0M66 7.79h0M67 7.79h0M68 7.79h0M69 7.79h0M70 7.79h0M71 7.79h0M72 7.79h0M73 7.79h0M74 7.79h0M75 7.79h0M76 7.79h0M77 7.79h0M0.5 8.66h0M1.5 8.66h0M2.5 8.66h0M3.5 8.66h0M4.5 8.66h0M5.5 8.66h0M6.5 8.66h0M7.5 8.66h0M8.5 8.66h0M9.5 8.66h0M12.5 8.66h0M13.5 8.66h0M14.5 8.66h0M15.5 8.66h0M16.5 8.66h0M17.5 8.66h0M18.5 8.66h0M19.5 8.66h0M20.5 8.66h0M21.5 8.66h0M22.5 8.66h0M23.5 8.66h0M50.5 8.66h0M51.5 8.66h0M54.5 8.66h0M55.5 8.66h0M60.5 8.66h0M61.5 8.66h0M62.5 8.66h0M63.5 8.66h0M64.5 8.66h0M65.5 8.66h0M66.5 8.66h0M67.5 8.66h0M68.5 8.66h0M69.5 8.66h0M70.5 8.66h0M71.5 8.66h0M72.5 8.66h0M73.5 8.66h0M74.5 8.66h0M75.5 8.66h0M76.5 8.66h0M77.5 8.66h0M0 9.53h0M1 9.53h0M2 9.53h0M3 9.53h0M4 9.53h0M5 9.53h0M6 9.53h0M7 9.53h0M8 9.53h0M9 9.53h0M10 9.53h0M12 9.53h0M13 9.53h0M14 9.53h0M15 9.53h0M16 9.53h0M17 9.53h0M18 9.53h0M19 9.53h0M20 9.53h0M21 9.53h0M22 9.53h0M23 9.53h0M24 9.53h0M51 9.53h0M52 9.53h0M54 9.53h0M55 9.53h0M56 9.53h0M59 9.53h0M60 9.53h0M61 9.53h0M62 9.53h0M63 9.53h0M64 9.53h0M65 9.53h0M66 9.53h0M67 9.53h0M68 9.53h0M69 9.53h0M70 9.53h0M71 9.53h0M72 9.53h0M73 9.53h0M74 9.53h0M75 9.53h0M76 9.53h0M77 9.53h0M0.5 10.39h0M1.5 10.39h0M2.5 10.39h0M3.5 10.39h0M4.5 10.39h0M5.5 10.39h0M6.5 10.39h0M7.5 10.39h0M8.5 10.39h0M9.5 10.39h0M10.5 10.39h0M12.5 10.39h0M13.5 10.39h0M14.5 10.39h0M15.5 10.39h0M16.5 10.39h0M17.5 10.39h0M18.5 10.39h0M19.5 10.39h0M20.5 10.39h0M21.5 10.39h0M22.5 10.39h0M23.5 10.39h0M50.5 10.39h0M53.5 10.39h0M54.5 10.39h0M55.5 10.39h0M58.5 10.39h0M59.5 10.39h0M60.5 10.39h0M61.5 10.39h0M62.5 10.39h0M63.5 10.39h0M64.5 10.39h0M65.5 10.39h0M66.5 10.39h0M67.5 10.39h0M68.5 10.39h0M69.5 10.39h0M70.5 10.39h0M71.5 10.39h0M72.5 10.39h0M73.5 10.39h0M74.5 10.39h0M75.5 10.39h0M76.5 10.39h0M77.5 10.39h0M0 11.26h0M1 11.26h0M2 11.26h0M3 11.26h0M4 11.26h0M5 11.26h0M6 11.26h0M7 11.26h0M8 11.26h0M9 11.26h0M10 11.26h0M11 11.26h0M12 11.26h0M13 11.26h0M14 11.26h0M15 11.26h0M16 11.26h0M17 11.26h0M18 11.26h0M19 11.26h0M20 11.26h0M21 11.26h0M22 11.26h0M24 11.26h0M54 11.26h0M55 11.26h0M56 11.26h0M57 11.26h0M58 11.26h0M59 11.26h0M60 11.26h0M61 11.26h0M62 11.26h0M63 11.26h0M64 11.26h0M65 11.26h0M66 11.26h0M67 11.26h0M68 11.26h0M69 11.26h0M70 11.26h0M71 11.26h0M72 11.26h0M73 11.26h0M74 11.26h0M75 11.26h0M76 11.26h0M77 11.26h0M0.5 12.12h0M1.5 12.12h0M2.5 12.12h0M3.5 12.12h0M4.5 12.12h0M5.5 12.12h0M6.5 12.12h0M7.5 12.12h0M8.5 12.12h0M9.5 12.12h0M10.5 12.12h0M11.5 12.12h0M12.5 12.12h0M13.5 12.12h0M14.5 12.12h0M15.5 12.12h0M16.5 12.12h0M17.5 12.12h0M23.5 12.12h0M24.5 12.12h0M56.5 12.12h0M57.5 12.12h0M58.5 12.12h0M59.5 12.12h0M60.5 12.12h0M61.5 12.12h0M62.5 12.12h0M63.5 12.12h0M64.5 12.12h0M65.5 12.12h0M66.5 12.12h0M67.5 12.12h0M68.5 12.12h0M69.5 12.12h0M70.5 12.12h0M71.5 12.12h0M72.5 12.12h0M73.5 12.12h0M74.5 12.12h0M75.5 12.12h0M76.5 12.12h0M77.5 12.12h0M0 12.99h0M1 12.99h0M2 12.99h0M3 12.99h0M4 12.99h0M5 12.99h0M6 12.99h0M7 12.99h0M8 12.99h0M9 12.99h0M10 12.99h0M11 12.99h0M12 12.99h0M13 12.99h0M14 12.99h0M15 12.99h0M16 12.99h0M17 12.99h0M19 12.99h0M23 12.99h0M24 12.99h0M25 12.99h0M55 12.99h0M56 12.99h0M57 12.99h0M58 12.99h0M59 12.99h0M60 12.99h0M61 12.99h0M62 12.99h0M63 12.99h0M64 12.99h0M65 12.99h0M66 12.99h0M67 12.99h0M68 12.99h0M69 12.99h0M70 12.99h0M71 12.99h0M72 12.99h0M73 12.99h0M74 12.99h0M75 12.99h0M76 12.99h0M77 12.99h0M0.5 13.86h0M1.5 13.86h0M2.5 13.86h0M3.5 13.86h0M4.5 13.86h0M5.5 13.86h0M6.5 13.86h0M7.5 13.86h0M8.5 13.86h0M9.5 13.86h0M10.5 13.86h0M11.5 13.86h0M12.5 13.86h0M13.5 13.86h0M14.5 13.86h0M15.5 13.86h0M16.5 13.86h0M17.5 13.86h0M18.5 13.86h0M23.5 13.86h0M24.5 13.86h0M25.5 13.86h0M53.5 13.86h0M54.5 13.86h0M55.5 13.86h0M56.5 13.86h0M57.5 13.86h0M58.5 13.86h0M59.5 13.86h0M60.5 13.86h0M61.5 13.86h0M62.5 13.86h0M63.5 13.86h0M64.5 13.86h0M65.5 13.86h0M66.5 13.86h0M67.5 13.86h0M68.5 13.86h0M69.5 13.86h0M70.5 13.86h0M71.5 13.86h0M72.5 13.86h0M73.5 13.86h0M74.5 13.86h0M75.5 13.86h0M76.5 13.86h0M77.5 13.86h0M0 14.72h0M1 14.72h0M2 14.72h0M3 14.72h0M4 14.72h0M5 14.72h0M6 14.72h0M7 14.72h0M8 14.72h0M9 14.72h0M10 14.72h0M11 14.72h0M12 14.72h0M13 14.72h0M14 14.72h0M15 14.72h0M16 14.72h0M17 14.72h0M18 14.72h0M19 14.72h0M20 14.72h0M22 14.72h0M26 14.72h0M55 14.72h0M56 14.72h0M57 14.72h0M58 14.72h0M59 14.72h0M60 14.72h0M61 14.72h0M62 14.72h0M63 14.72h0M64 14.72h0M65 14.72h0M66 14.72h0M67 14.72h0M68 14.72h0M69 14.72h0M70 14.72h0M71 14.72h0M72 14.72h0M73 14.72h0M74 14.72h0M75 14.72h0M76 14.72h0M77 14.72h0M0.5 15.59h0M1.5 15.59h0M2.5 15.59h0M3.5 15.59h0M4.5 15.59h0M5.5 15.59h0M6.5 15.59h0M7.5 15.59h0M8.5 15.59h0M9.5 15.59h0M10.5 15.59h0M11.5 15.59h0M12.5 15.59h0M13.5 15.59h0M14.5 15.59h0M15.5 15.59h0M16.5 15.59h0M17.5 15.59h0M18.5 15.59h0M19.5 15.59h0M20.5 15.59h0M21.5 15.59h0M55.5 15.59h0M56.5 15.59h0M57.5 15.59h0M58.5 15.59h0M59.5 15.59h0M60.5 15.59h0M61.5 15.59h0M62.5 15.59h0M63.5 15.59h0M64.5 15.59h0M65.5 15.59h0M66.5 15.59h0M67.5 15.59h0M68.5 15.59h0M69.5 15.59h0M70.5 15.59h0M71.5 15.59h0M74.5 15.59h0M77.5 15.59h0M0 16.45h0M1 16.45h0M2 16.45h0M3 16.45h0M4 16.45h0M5 16.45h0M6 16.45h0M7 16.45h0M8 16.45h0M9 16.45h0M10 16.45h0M11 16.45h0M12 16.45h0M13 16.45h0M14 16.45h0M15 16.45h0M16 16.45h0M17 16.45h0M18 16.45h0M20 16.45h0M55 16.45h0M56 16.45h0M57 16.45h0M58 16.45h0M59 16.45h0M60 16.45h0M61 16.45h0M62 16.45h0M65 16.45h0M66 16.45h0M67 16.45h0M68 16.45h0M69 16.45h0M70 16.45h0M71 16.45h0M77 16.45h0M0.5 17.32h0M1.5 17.32h0M2.5 17.32h0M3.5 17.32h0M4.5 17.32h0M5.5 17.32h0M6.5 17.32h0M7.5 17.32h0M8.5 17.32h0M9.5 17.32h0M10.5 17.32h0M11.5 17.32h0M12.5 17.32h0M13.5 17.32h0M14.5 17.32h0M15.5 17.32h0M16.5 17.32h0M51.5 17.32h0M52.5 17.32h0M55.5 17.32h0M56.5 17.32h0M57.5 17.32h0M58.5 17.32h0M59.5 17.32h0M61.5 17.32h0M62.5 17.32h0M65.5 17.32h0M66.5 17.32h0M67.5 17.32h0M68.5 17.32h0M69.5 17.32h0M70.5 17.32h0M0 18.19h0M1 18.19h0M2 18.19h0M3 18.19h0M4 18.19h0M5 18.19h0M6 18.19h0M7 18.19h0M8 18.19h0M9 18.19h0M10 18.19h0M11 18.19h0M12 18.19h0M13 18.19h0M14 18.19h0M15 18.19h0M16 18.19h0M51 18.19h0M52 18.19h0M53 18.19h0M54 18.19h0M55 18.19h0M56 18.19h0M57 18.19h0M61 18.19h0M62 18.19h0M63 18.19h0M67 18.19h0M68 18.19h0M69 18.19h0M70 18.19h0M71 18.19h0M0.5 19.05h0M1.5 19.05h0M2.5 19.05h0M3.5 19.05h0M4.5 19.05h0M5.5 19.05h0M6.5 19.05h0M7.5 19.05h0M8.5 19.05h0M9.5 19.05h0M10.5 19.05h0M11.5 19.05h0M12.5 19.05h0M13.5 19.05h0M14.5 19.05h0M51.5 19.05h0M52.5 19.05h0M53.5 19.05h0M54.5 19.05h0M55.5 19.05h0M56.5 19.05h0M63.5 19.05h0M64.5 19.05h0M67.5 19.05h0M68.5 19.05h0M69.5 19.05h0M70.5 19.05h0M71.5 19.05h0M72.5 19.05h0M73.5 19.05h0M74.5 19.05h0M75.5 19.05h0M76.5 19.05h0M0 19.92h0M1 19.92h0M2 19.92h0M3 19.92h0M4 19.92h0M5 19.92h0M6 19.92h0M7 19.92h0M8 19.92h0M9 19.92h0M10 19.92h0M11 19.92h0M12 19.92h0M13 19.92h0M14 19.92h0M51 19.92h0M52 19.92h0M53 19.92h0M54 19.92h0M55 19.92h0M61 19.92h0M67 19.92h0M68 19.92h0M69 19.92h0M71 19.92h0M72 19.92h0M73 19.92h0M74 19.92h0M75 19.92h0M76 19.92h0M77 19.92h0M0.5 20.78h0M1.5 20.78h0M2.5 20.78h0M3.5 20.78h0M4.5 20.78h0M5.5 20.78h0M6.5 20.78h0M7.5 20.78h0M8.5 20.78h0M9.5 20.78h0M10.5 20.78h0M11.5 20.78h0M12.5 20.78h0M13.5 20.78h0M50.5 20.78h0M51.5 20.78h0M52.5 20.78h0M53.5 20.78h0M54.5 20.78h0M55.5 20.78h0M67.5 20.78h0M68.5 20.78h0M71.5 20.78h0M72.5 20.78h0M73.5 20.78h0M74.5 20.78h0M75.5 20.78h0M76.5 20.78h0M77.5 20.78h0M0 21.65h0M1 21.65h0M2 21.65h0M3 21.65h0M4 21.65h0M5 21.65h0M6 21.65h0M7 21.65h0M8 21.65h0M9 21.65h0M10 21.65h0M11 21.65h0M12 21.65h0M13 21.65h0M51 21.65h0M52 21.65h0M53 21.65h0M54 21.65h0M55 21.65h0M63 21.65h0M64 21.65h0M68 21.65h0M71 21.65h0M72 21.65h0M73 21.65h0M74 21.65h0M75 21.65h0M76 21.65h0M77 21.65h0M0.5 22.52h0M1.5 22.52h0M2.5 22.52h0M3.5 22.52h0M4.5 22.52h0M5.5 22.52h0M6.5 22.52h0M7.5 22.52h0M8.5 22.52h0M9.5 22.52h0M10.5 22.52h0M11.5 22.52h0M12.5 22.52h0M52.5 22.52h0M56.5 22.52h0M57.5 22.52h0M58.5 22.52h0M59.5 22.52h0M60.5 22.52h0M61.5 22.52h0M72.5 22.52h0M74.5 22.52h0M76.5 22.52h0M77.5 22.52h0M0 23.38h0M1 23.38h0M2 23.38h0M3 23.38h0M4 23.38h0M5 23.38h0M6 23.38h0M7 23.38h0M8 23.38h0M9 23.38h0M10 23.38h0M11 23.38h0M12 23.38h0M13 23.38h0M53 23.38h0M54 23.38h0M55 23.38h0M56 23.38h0M57 23.38h0M58 23.38h0M59 23.38h0M60 23.38h0M61 23.38h0M70 23.38h0M74 23.38h0M76 23.38h0M77 23.38h0M0.5 24.25h0M1.5 24.25h0M2.5 24.25h0M3.5 24.25h0M4.5 24.25h0M5.5 24.25h0M6.5 24.25h0M7.5 24.25h0M8.5 24.25h0M9.5 24.25h0M10.5 24.25h0M11.5 24.25h0M51.5 24.25h0M52.5 24.25h0M53.5 24.25h0M54.5 24.25h0M55.5 24.25h0M56.5 24.25h0M57.5 24.25h0M58.5 24.25h0M59.5 24.25h0M60.5 24.25h0M61.5 24.25h0M75.5 24.25h0M76.5 24.25h0M77.5 24.25h0M0 25.11h0M1 25.11h0M2 25.11h0M3 25.11h0M4 25.11h0M5 25.11h0M6 25.11h0M7 25.11h0M8 25.11h0M9 25.11h0M10 25.11h0M51 25.11h0M52 25.11h0M53 25.11h0M54 25.11h0M55 25.11h0M56 25.11h0M57 25.11h0M58 25.11h0M59 25.11h0M60 25.11h0M61 25.11h0M62 25.11h0M63 25.11h0M68 25.11h0M76 25.11h0M77 25.11h0M0.5 25.98h0M1.5 25.98h0M2.5 25.98h0M3.5 25.98h0M4.5 25.98h0M5.5 25.98h0M6.5 25.98h0M7.5 25.98h0M8.5 25.98h0M9.5 25.98h0M50.5 25.98h0M51.5 25.98h0M52.5 25.98h0M53.5 25.98h0M54.5 25.98h0M55.5 25.98h0M56.5 25.98h0M57.5 25.98h0M58.5 25.98h0M59.5 25.98h0M60.5 25.98h0M61.5 25.98h0M62.5 25.98h0M63.5 25.98h0M64.5 25.98h0M67.5 25.98h0M68.5 25.98h0M69.5 25.98h0M70.5 25.98h0M72.5 25.98h0M75.5 25.98h0M76.5 25.98h0M77.5 25.98h0M0 26.85h0M1 26.85h0M2 26.85h0M3 26.85h0M4 26.85h0M5 26.85h0M10 26.85h0M51 26.85h0M52 26.85h0M53 26.85h0M54 26.85h0M55 26.85h0M56 26.85h0M57 26.85h0M58 26.85h0M59 26.85h0M60 26.85h0M61 26.85h0M62 26.85h0M63 26.85h0M64 26.85h0M65 26.85h0M66 26.85h0M67 26.85h0M68 26.85h0M69 26.85h0M70 26.85h0M71 26.85h0M72 26.85h0M73 26.85h0M74 26.85h0M75 26.85h0M76 26.85h0M77 26.85h0M0.5 27.71h0M1.5 27.71h0M10.5 27.71h0M49.5 27.71h0M50.5 27.71h0M51.5 27.71h0M52.5 27.71h0M53.5 27.71h0M54.5 27.71h0M55.5 27.71h0M56.5 27.71h0M57.5 27.71h0M58.5 27.71h0M59.5 27.71h0M60.5 27.71h0M61.5 27.71h0M62.5 27.71h0M63.5 27.71h0M64.5 27.71h0M65.5 27.71h0M66.5 27.71h0M67.5 27.71h0M68.5 27.71h0M69.5 27.71h0M70.5 27.71h0M71.5 27.71h0M72.5 27.71h0M73.5 27.71h0M74.5 27.71h0M75.5 27.71h0M76.5 27.71h0M77.5 27.71h0M0 28.58h0M1 28.58h0M10 28.58h0M11 28.58h0M49 28.58h0M50 28.58h0M51 28.58h0M52 28.58h0M53 28.58h0M54 28.58h0M55 28.58h0M56 28.58h0M57 28.58h0M58 28.58h0M59 28.58h0M60 28.58h0M61 28.58h0M62 28.58h0M63 28.58h0M64 28.58h0M65 28.58h0M66 28.58h0M67 28.58h0M68 28.58h0M69 28.58h0M70 28.58h0M71 28.58h0M72 28.58h0M73 28.58h0M74 28.58h0M76 28.58h0M77 28.58h0M0.5 29.44h0M1.5 29.44h0M10.5 29.44h0M47.5 29.44h0M48.5 29.44h0M49.5 29.44h0M50.5 29.44h0M51.5 29.44h0M52.5 29.44h0M53.5 29.44h0M54.5 29.44h0M55.5 29.44h0M56.5 29.44h0M57.5 29.44h0M58.5 29.44h0M59.5 29.44h0M60.5 29.44h0M61.5 29.44h0M62.5 29.44h0M63.5 29.44h0M64.5 29.44h0M65.5 29.44h0M66.5 29.44h0M67.5 29.44h0M68.5 29.44h0M69.5 29.44h0M70.5 29.44h0M71.5 29.44h0M72.5 29.44h0M73.5 29.44h0M74.5 29.44h0M76.5 29.44h0M77.5 29.44h0M0 30.31h0M1 30.31h0M48 30.31h0M49 30.31h0M50 30.31h0M51 30.31h0M52 30.31h0M53 30.31h0M54 30.31h0M55 30.31h0M56 30.31h0M57 30.31h0M58 30.31h0M59 30.31h0M60 30.31h0M61 30.31h0M62 30.31h0M63 30.31h0M64 30.31h0M65 30.31h0M66 30.31h0M67 30.31h0M68 30.31h0M69 30.31h0M70 30.31h0M71 30.31h0M72 30.31h0M73 30.31h0M74 30.31h0M75 30.31h0M77 30.31h0M0.5 31.18h0M9.5 31.18h0M10.5 31.18h0M47.5 31.18h0M48.5 31.18h0M49.5 31.18h0M50.5 31.18h0M51.5 31.18h0M52.5 31.18h0M53.5 31.18h0M54.5 31.18h0M55.5 31.18h0M56.5 31.18h0M57.5 31.18h0M58.5 31.18h0M59.5 31.18h0M60.5 31.18h0M61.5 31.18h0M62.5 31.18h0M63.5 31.18h0M64.5 31.18h0M65.5 31.18h0M66.5 31.18h0M67.5 31.18h0M68.5 31.18h0M69.5 31.18h0M70.5 31.18h0M71.5 31.18h0M72.5 31.18h0M73.5 31.18h0M74.5 31.18h0M75.5 31.18h0M77.5 31.18h0M0 32.04h0M1 32.04h0M6 32.04h0M7 32.04h0M12 32.04h0M13 32.04h0M47 32.04h0M48 32.04h0M49 32.04h0M50 32.04h0M51 32.04h0M52 32.04h0M53 32.04h0M54 32.04h0M55 32.04h0M56 32.04h0M57 32.04h0M58 32.04h0M59 32.04h0M60 32.04h0M61 32.04h0M62 32.04h0M63 32.04h0M64 32.04h0M65 32.04h0M66 32.04h0M67 32.04h0M68 32.04h0M69 32.04h0M70 32.04h0M71 32.04h0M72 32.04h0M73 32.04h0M74 32.04h0M75 32.04h0M76 32.04h0M0.5 32.91h0M1.5 32.91h0M5.5 32.91h0M6.5 32.91h0M15.5 32.91h0M47.5 32.91h0M48.5 32.91h0M49.5 32.91h0M50.5 32.91h0M51.5 32.91h0M52.5 32.91h0M53.5 32.91h0M54.5 32.91h0M55.5 32.91h0M56.5 32.91h0M57.5 32.91h0M58.5 32.91h0M59.5 32.91h0M60.5 32.91h0M61.5 32.91h0M62.5 32.91h0M63.5 32.91h0M64.5 32.91h0M65.5 32.91h0M66.5 32.91h0M67.5 32.91h0M68.5 32.91h0M69.5 32.91h0M70.5 32.91h0M71.5 32.91h0M72.5 32.91h0M73.5 32.91h0M74.5 32.91h0M75.5 32.91h0M0 33.77h0M1 33.77h0M2 33.77h0M3 33.77h0M4 33.77h0M5 33.77h0M6 33.77h0M15 33.77h0M16 33.77h0M19 33.77h0M47 33.77h0M48 33.77h0M49 33.77h0M50 33.77h0M51 33.77h0M52 33.77h0M53 33.77h0M54 33.77h0M55 33.77h0M56 33.77h0M57 33.77h0M58 33.77h0M59 33.77h0M60 33.77h0M61 33.77h0M62 33.77h0M63 33.77h0M64 33.77h0M65 33.77h0M66 33.77h0M67 33.77h0M68 33.77h0M69 33.77h0M70 33.77h0M71 33.77h0M72 33.77h0M73 33.77h0M74 33.77h0M75 33.77h0M76 33.77h0M0.5 34.64h0M1.5 34.64h0M2.5 34.64h0M3.5 34.64h0M4.5 34.64h0M5.5 34.64h0M6.5 34.64h0M47.5 34.64h0M48.5 34.64h0M49.5 34.64h0M50.5 34.64h0M51.5 34.64h0M52.5 34.64h0M53.5 34.64h0M54.5 34.64h0M55.5 34.64h0M56.5 34.64h0M57.5 34.64h0M58.5 34.64h0M59.5 34.64h0M60.5 34.64h0M61.5 34.64h0M62.5 34.64h0M63.5 34.64h0M64.5 34.64h0M65.5 34.64h0M66.5 34.64h0M67.5 34.64h0M68.5 34.64h0M69.5 34.64h0M70.5 34.64h0M71.5 34.64h0M72.5 34.64h0M73.5 34.64h0M74.5 34.64h0M75.5 34.64h0M76.5 34.64h0M4 35.51h0M5 35.51h0M6 35.51h0M7 35.51h0M8 35.51h0M9 35.51h0M47 35.51h0M48 35.51h0M49 35.51h0M50 35.51h0M51 35.51h0M52 35.51h0M53 35.51h0M54 35.51h0M55 35.51h0M56 35.51h0M57 35.51h0M58 35.51h0M59 35.51h0M60 35.51h0M61 35.51h0M62 35.51h0M63 35.51h0M64 35.51h0M65 35.51h0M66 35.51h0M67 35.51h0M68 35.51h0M69 35.51h0M70 35.51h0M71 35.51h0M72 35.51h0M73 35.51h0M74 35.51h0M75 35.51h0M76 35.51h0M77 35.51h0M5.5 36.37h0M6.5 36.37h0M7.5 36.37h0M8.5 36.37h0M46.5 36.37h0M47.5 36.37h0M48.5 36.37h0M49.5 36.37h0M50.5 36.37h0M51.5 36.37h0M52.5 36.37h0M53.5 36.37h0M54.5 36.37h0M55.5 36.37h0M56.5 36.37h0M57.5 36.37h0M58.5 36.37h0M59.5 36.37h0M60.5 36.37h0M61.5 36.37h0M62.5 36.37h0M63.5 36.37h0M64.5 36.37h0M65.5 36.37h0M66.5 36.37h0M67.5 36.37h0M68.5 36.37h0M69.5 36.37h0M70.5 36.37h0M71.5 36.37h0M72.5 36.37h0M73.5 36.37h0M74.5 36.37h0M75.5 36.37h0M76.5 36.37h0M77.5 36.37h0M8 37.24h0M9 37.24h0M47 37.24h0M48 37.24h0M49 37.24h0M50 37.24h0M51 37.24h0M52 37.24h0M53 37.24h0M54 37.24h0M55 37.24h0M56 37.24h0M57 37.24h0M58 37.24h0M59 37.24h0M60 37.24h0M61 37.24h0M62 37.24h0M63 37.24h0M64 37.24h0M65 37.24h0M66 37.24h0M67 37.24h0M68 37.24h0M69 37.24h0M70 37.24h0M71 37.24h0M72 37.24h0M73 37.24h0M74 37.24h0M75 37.24h0M76 37.24h0M77 37.24h0M8.5 38.11h0M14.5 38.11h0M15.5 38.11h0M16.5 38.11h0M17.5 38.11h0M21.5 38.11h0M48.5 38.11h0M49.5 38.11h0M50.5 38.11h0M51.5 38.11h0M52.5 38.11h0M53.5 38.11h0M54.5 38.11h0M55.5 38.11h0M56.5 38.11h0M57.5 38.11h0M58.5 38.11h0M59.5 38.11h0M60.5 38.11h0M61.5 38.11h0M62.5 38.11h0M63.5 38.11h0M64.5 38.11h0M65.5 38.11h0M66.5 38.11h0M67.5 38.11h0M68.5 38.11h0M69.5 38.11h0M70.5 38.11h0M71.5 38.11h0M72.5 38.11h0M73.5 38.11h0M74.5 38.11h0M75.5 38.11h0M76.5 38.11h0M77.5 38.11h0M11 38.97h0M12 38.97h0M14 38.97h0M15 38.97h0M17 38.97h0M18 38.97h0M19 38.97h0M20 38.97h0M21 38.97h0M49 38.97h0M50 38.97h0M51 38.97h0M52 38.97h0M53 38.97h0M54 38.97h0M55 38.97h0M56 38.97h0M57 38.97h0M58 38.97h0M59 38.97h0M60 38.97h0M61 38.97h0M62 38.97h0M63 38.97h0M64 38.97h0M65 38.97h0M66 38.97h0M67 38.97h0M68 38.97h0M69 38.97h0M70 38.97h0M71 38.97h0M72 38.97h0M73 38.97h0M74 38.97h0M75 38.97h0M76 38.97h0M77 38.97h0M12.5 39.84h0M13.5 39.84h0M14.5 39.84h0M15.5 39.84h0M16.5 39.84h0M17.5 39.84h0M18.5 39.84h0M19.5 39.84h0M20.5 39.84h0M21.5 39.84h0M22.5 39.84h0M49.5 39.84h0M50.5 39.84h0M51.5 39.84h0M52.5 39.84h0M53.5 39.84h0M54.5 39.84h0M55.5 39.84h0M56.5 39.84h0M57.5 39.84h0M58.5 39.84h0M59.5 39.84h0M60.5 39.84h0M61.5 39.84h0M62.5 39.84h0M63.5 39.84h0M64.5 39.84h0M65.5 39.84h0M66.5 39.84h0M67.5 39.84h0M68.5 39.84h0M69.5 39.84h0M70.5 39.84h0M71.5 39.84h0M72.5 39.84h0M73.5 39.84h0M74.5 39.84h0M75.5 39.84h0M76.5 39.84h0M77.5 39.84h0M13 40.7h0M14 40.7h0M15 40.7h0M16 40.7h0M17 40.7h0M18 40.7h0M19 40.7h0M20 40.7h0M21 40.7h0M22 40.7h0M23 40.7h0M50 40.7h0M51 40.7h0M52 40.7h0M53 40.7h0M54 40.7h0M55 40.7h0M56 40.7h0M59 40.7h0M60 40.7h0M61 40.7h0M62 40.7h0M63 40.7h0M64 40.7h0M65 40.7h0M66 40.7h0M67 40.7h0M68 40.7h0M69 40.7h0M70 40.7h0M71 40.7h0M72 40.7h0M73 40.7h0M74 40.7h0M75 40.7h0M76 40.7h0M77 40.7h0M13.5 41.57h0M14.5 41.57h0M15.5 41.57h0M16.5 41.57h0M17.5 41.57h0M18.5 41.57h0M19.5 41.57h0M20.5 41.57h0M21.5 41.57h0M22.5 41.57h0M23.5 41.57h0M24.5 41.57h0M25.5 41.57h0M26.5 41.57h0M51.5 41.57h0M59.5 41.57h0M60.5 41.57h0M61.5 41.57h0M62.5 41.57h0M63.5 41.57h0M64.5 41.57h0M65.5 41.57h0M66.5 41.57h0M67.5 41.57h0M68.5 41.57h0M69.5 41.57h0M70.5 41.57h0M71.5 41.57h0M72.5 41.57h0M73.5 41.57h0M74.5 41.57h0M75.5 41.57h0M76.5 41.57h0M77.5 41.57h0M13 42.44h0M14 42.44h0M15 42.44h0M16 42.44h0M17 42.44h0M18 42.44h0M19 42.44h0M20 42.44h0M21 42.44h0M22 42.44h0M23 42.44h0M24 42.44h0M25 42.44h0M26 42.44h0M27 42.44h0M62 42.44h0M63 42.44h0M64 42.44h0M65 42.44h0M66 42.44h0M67 42.44h0M68 42.44h0M69 42.44h0M70 42.44h0M71 42.44h0M72 42.44h0M73 42.44h0M74 42.44h0M75 42.44h0M76 42.44h0M77 42.44h0M12.5 43.3h0M13.5 43.3h0M14.5 43.3h0M15.5 43.3h0M16.5 43.3h0M17.5 43.3h0M18.5 43.3h0M19.5 43.3h0M20.5 43.3h0M21.5 43.3h0M22.5 43.3h0M23.5 43.3h0M24.5 43.3h0M25.5 43.3h0M26.5 43.3h0M27.5 43.3h0M61.5 43.3h0M62.5 43.3h0M63.5 43.3h0M64.5 43.3h0M65.5 43.3h0M66.5 43.3h0M67.5 43.3h0M68.5 43.3h0M69.5 43.3h0M70.5 43.3h0M71.5 43.3h0M72.5 43.3h0M73.5 43.3h0M74.5 43.3h0M75.5 43.3h0M76.5 43.3h0M77.5 43.3h0M11 44.17h0M12 44.17h0M13 44.17h0M14 44.17h0M15 44.17h0M16 44.17h0M17 44.17h0M18 44.17h0M19 44.17h0M20 44.17h0M21 44.17h0M22 44.17h0M23 44.17h0M24 44.17h0M25 44.17h0M26 44.17h0M27 44.17h0M28 44.17h0M61 44.17h0M62 44.17h0M63 44.17h0M64 44.17h0M65 44.17h0M66 44.17h0M67 44.17h0M68 44.17h0M69 44.17h0M70 44.17h0M71 44.17h0M72 44.17h0M73 44.17h0M74 44.17h0M75 44.17h0M76 44.17h0M77 44.17h0M11.5 45.03h0M12.5 45.03h0M13.5 45.03h0M14.5 45.03h0M15.5 45.03h0M16.5 45.03h0M17.5 45.03h0M18.5 45.03h0M19.5 45.03h0M20.5 45.03h0M21.5 45.03h0M22.5 45.03h0M23.5 45.03h0M24.5 45.03h0M25.5 45.03h0M26.5 45.03h0M27.5 45.03h0M28.5 45.03h0M29.5 45.03h0M30.5 45.03h0M61.5 45.03h0M62.5 45.03h0M63.5 45.03h0M64.5 45.03h0M65.5 45.03h0M66.5 45.03h0M67.5 45.03h0M68.5 45.03h0M69.5 45.03h0M70.5 45.03h0M71.5 45.03h0M72.5 45.03h0M73.5 45.03h0M74.5 45.03h0M75.5 45.03h0M76.5 45.03h0M77.5 45.03h0M12 45.9h0M13 45.9h0M14 45.9h0M15 45.9h0M16 45.9h0M17 45.9h0M18 45.9h0M19 45.9h0M20 45.9h0M21 45.9h0M22 45.9h0M23 45.9h0M24 45.9h0M25 45.9h0M26 45.9h0M27 45.9h0M28 45.9h0M29 45.9h0M30 45.9h0M31 45.9h0M32 45.9h0M33 45.9h0M62 45.9h0M63 45.9h0M64 45.9h0M65 45.9h0M66 45.9h0M67 45.9h0M68 45.9h0M69 45.9h0M70 45.9h0M71 45.9h0M72 45.9h0M73 45.9h0M74 45.9h0M75 45.9h0M76 45.9h0M77 45.9h0M10.5 46.77h0M11.5 46.77h0M12.5 46.77h0M13.5 46.77h0M14.5 46.77h0M15.5 46.77h0M16.5 46.77h0M17.5 46.77h0M18.5 46.77h0M19.5 46.77h0M20.5 46.77h0M21.5 46.77h0M22.5 46.77h0M23.5 46.77h0M24.5 46.77h0M25.5 46.77h0M26.5 46.77h0M27.5 46.77h0M28.5 46.77h0M29.5 46.77h0M30.5 46.77h0M31.5 46.77h0M32.5 46.77h0M33.5 46.77h0M34.5 46.77h0M62.5 46.77h0M63.5 46.77h0M64.5 46.77h0M65.5 46.77h0M66.5 46.77h0M67.5 46.77h0M68.5 46.77h0M69.5 46.77h0M70.5 46.77h0M71.5 46.77h0M72.5 46.77h0M73.5 46.77h0M74.5 46.77h0M75.5 46.77h0M76.5 46.77h0M77.5 46.77h0M11 47.63h0M12 47.63h0M13 47.63h0M14 47.63h0M15 47.63h0M16 47.63h0M17 47.63h0M18 47.63h0M19 47.63h0M20 47.63h0M21 47.63h0M22 47.63h0M23 47.63h0M24 47.63h0M25 47.63h0M26 47.63h0M27 47.63h0M28 47.63h0M29 47.63h0M30 47.63h0M31 47.63h0M32 47.63h0M33 47.63h0M34 47.63h0M35 47.63h0M36 47.63h0M63 47.63h0M64 47.63h0M65 47.63h0M66 47.63h0M67 47.63h0M68 47.63h0M69 47.63h0M70 47.63h0M71 47.63h0M72 47.63h0M73 47.63h0M74 47.63h0M75 47.63h0M76 47.63h0M77 47.63h0M11.5 48.5h0M12.5 48.5h0M13.5 48.5h0M14.5 48.5h0M15.5 48.5h0M16.5 48.5h0M17.5 48.5h0M18.5 48.5h0M19.5 48.5h0M20.5 48.5h0M21.5 48.5h0M22.5 48.5h0M23.5 48.5h0M24.5 48.5h0M25.5 48.5h0M26.5 48.5h0M27.5 48.5h0M28.5 48.5h0M29.5 48.5h0M30.5 48.5h0M31.5 48.5h0M32.5 48.5h0M33.5 48.5h0M34.5 48.5h0M35.5 48.5h0M63.5 48.5h0M64.5 48.5h0M65.5 48.5h0M66.5 48.5h0M67.5 48.5h0M68.5 48.5h0M69.5 48.5h0M70.5 48.5h0M71.5 48.5h0M72.5 48.5h0M73.5 48.5h0M74.5 48.5h0M75.5 48.5h0M76.5 48.5h0M77.5 48.5h0M12 49.36h0M13 49.36h0M14 49.36h0M15 49.36h0M16 49.36h0M17 49.36h0M18 49.36h0M19 49.36h0M20 49.36h0M21 49.36h0M22 49.36h0M23 49.36h0M24 49.36h0M25 49.36h0M26 49.36h0M27 49.36h0M28 49.36h0M29 49.36h0M30 49.36h0M31 49.36h0M32 49.36h0M33 49.36h0M34 49.36h0M35 49.36h0M63 49.36h0M64 49.36h0M65 49.36h0M66 49.36h0M67 49.36h0M68 49.36h0M69 49.36h0M70 49.36h0M71 49.36h0M72 49.36h0M73 49.36h0M74 49.36h0M75 49.36h0M76 49.36h0M77 49.36h0M12.5 50.23h0M13.5 50.23h0M14.5 50.23h0M15.5 50.23h0M16.5 50.23h0M17.5 50.23h0M18.5 50.23h0M19.5 50.23h0M20.5 50.23h0M21.5 50.23h0M22.5 50.23h0M23.5 50.23h0M24.5 50.23h0M25.5 50.23h0M26.5 50.23h0M27.5 50.23h0M28.5 50.23h0M29.5 50.23h0M30.5 50.23h0M31.5 50.23h0M32.5 50.23h0M33.5 50.23h0M34.5 50.23h0M63.5 50.23h0M64.5 50.23h0M65.5 50.23h0M66.5 50.23h0M67.5 50.23h0M68.5 50.23h0M69.5 50.23h0M70.5 50.23h0M71.5 50.23h0M72.5 50.23h0M73.5 50.23h0M74.5 50.23h0M75.5 50.23h0M76.5 50.23h0M77.5 50.23h0M13 51.1h0M14 51.1h0M15 51.1h0M16 51.1h0M17 51.1h0M18 51.1h0M19 51.1h0M20 51.1h0M21 51.1h0M22 51.1h0M23 51.1h0M24 51.1h0M25 51.1h0M26 51.1h0M27 51.1h0M28 51.1h0M29 51.1h0M30 51.1h0M31 51.1h0M32 51.1h0M33 51.1h0M34 51.1h0M64 51.1h0M65 51.1h0M66 51.1h0M67 51.1h0M68 51.1h0M69 51.1h0M70 51.1h0M71 51.1h0M72 51.1h0M73 51.1h0M74 51.1h0M75 51.1h0M76 51.1h0M77 51.1h0M13.5 51.96h0M14.5 51.96h0M15.5 51.96h0M16.5 51.96h0M17.5 51.96h0M18.5 51.96h0M19.5 51.96h0M20.5 51.96h0M21.5 51.96h0M22.5 51.96h0M23.5 51.96h0M24.5 51.96h0M25.5 51.96h0M26.5 51.96h0M27.5 51.96h0M28.5 51.96h0M29.5 51.96h0M30.5 51.96h0M31.5 51.96h0M32.5 51.96h0M33.5 51.96h0M63.5 51.96h0M64.5 51.96h0M65.5 51.96h0M66.5 51.96h0M67.5 51.96h0M68.5 51.96h0M69.5 51.96h0M70.5 51.96h0M71.5 51.96h0M72.5 51.96h0M73.5 51.96h0M74.5 51.96h0M75.5 51.96h0M76.5 51.96h0M77.5 51.96h0M15 52.83h0M16 52.83h0M17 52.83h0M18 52.83h0M19 52.83h0M20 52.83h0M21 52.83h0M22 52.83h0M23 52.83h0M24 52.83h0M25 52.83h0M26 52.83h0M27 52.83h0M28 52.83h0M29 52.83h0M30 52.83h0M31 52.83h0M32 52.83h0M33 52.83h0M34 52.83h0M63 52.83h0M64 52.83h0M65 52.83h0M66 52.83h0M67 52.83h0M68 52.83h0M69 52.83h0M70 52.83h0M71 52.83h0M72 52.83h0M73 52.83h0M74 52.83h0M75 52.83h0M76 52.83h0M77 52.83h0M16.5 53.69h0M17.5 53.69h0M18.5 53.69h0M19.5 53.69h0M20.5 53.69h0M21.5 53.69h0M22.5 53.69h0M23.5 53.69h0M24.5 53.69h0M25.5 53.69h0M26.5 53.69h0M27.5 53.69h0M28.5 53.69h0M29.5 53.69h0M30.5 53.69h0M31.5 53.69h0M32.5 53.69h0M33.5 53.69h0M62.5 53.69h0M63.5 53.69h0M64.5 53.69h0M65.5 53.69h0M66.5 53.69h0M67.5 53.69h0M68.5 53.69h0M69.5 53.69h0M70.5 53.69h0M71.5 53.69h0M72.5 53.69h0M73.5 53.69h0M74.5 53.69h0M75.5 53.69h0M76.5 53.69h0M17 54.56h0M18 54.56h0M19 54.56h0M20 54.56h0M21 54.56h0M22 54.56h0M23 54.56h0M24 54.56h0M25 54.56h0M26 54.56h0M27 54.56h0M28 54.56h0M29 54.56h0M30 54.56h0M31 54.56h0M32 54.56h0M33 54.56h0M63 54.56h0M64 54.56h0M65 54.56h0M66 54.56h0M67 54.56h0M68 54.56h0M69 54.56h0M70 54.56h0M71 54.56h0M72 54.56h0M73 54.56h0M74 54.56h0M75 54.56h0M17.5 55.43h0M18.5 55.43h0M19.5 55.43h0M20.5 55.43h0M21.5 55.43h0M22.5 55.43h0M23.5 55.43h0M24.5 55.43h0M25.5 55.43h0M26.5 55.43h0M27.5 55.43h0M28.5 55.43h0M29.5 55.43h0M30.5 55.43h0M31.5 55.43h0M32.5 55.43h0M63.5 55.43h0M64.5 55.43h0M65.5 55.43h0M66.5 55.43h0M67.5 55.43h0M68.5 55.43h0M69.5 55.43h0M70.5 55.43h0M71.5 55.43h0M72.5 55.43h0M73.5 55.43h0M74.5 55.43h0M17 56.29h0M18 56.29h0M19 56.29h0M20 56.29h0M21 56.29h0M22 56.29h0M23 56.29h0M24 56.29h0M25 56.29h0M26 56.29h0M27 56.29h0M28 56.29h0M29 56.29h0M30 56.29h0M31 56.29h0M32 56.29h0M64 56.29h0M65 56.29h0M66 56.29h0M67 56.29h0M68 56.29h0M69 56.29h0M70 56.29h0M71 56.29h0M72 56.29h0M73 56.29h0M74 56.29h0M75 56.29h0M17.5 57.16h0M18.5 57.16h0M19.5 57.16h0M20.5 57.16h0M21.5 57.16h0M22.5 57.16h0M23.5 57.16h0M24.5 57.16h0M25.5 57.16h0M26.5 57.16h0M27.5 57.16h0M28.5 57.16h0M29.5 57.16h0M30.5 57.16h0M31.5 57.16h0M64.5 57.16h0M65.5 57.16h0M66.5 57.16h0M67.5 57.16h0M68.5 57.16h0M69.5 57.16h0M70.5 57.16h0M71.5 57.16h0M72.5 57.16h0M73.5 57.16h0M74.5 57.16h0M75.5 57.16h0M17 58.02h0M18 58.02h0M19 58.02h0M20 58.02h0M21 58.02h0M22 58.02h0M23 58.02h0M24 58.02h0M25 58.02h0M26 58.02h0M27 58.02h0M28 58.02h0M29 58.02h0M64 58.02h0M65 58.02h0M66 58.02h0M67 58.02h0M68 58.02h0M69 58.02h0M70 58.02h0M71 58.02h0M72 58.02h0M73 58.02h0M74 58.02h0M75 58.02h0M16.5 58.89h0M17.5 58.89h0M18.5 58.89h0M19.5 58.89h0M20.5 58.89h0M21.5 58.89h0M22.5 58.89h0M23.5 58.89h0M24.5 58.89h0M25.5 58.89h0M26.5 58.89h0M27.5 58.89h0M28.5 58.89h0M64.5 58.89h0M65.5 58.89h0M66.5 58.89h0M67.5 58.89h0M68.5 58.89h0M69.5 58.89h0M70.5 58.89h0M71.5 58.89h0M72.5 58.89h0M73.5 58.89h0M17 59.76h0M18 59.76h0M19 59.76h0M20 59.76h0M21 59.76h0M22 59.76h0M23 59.76h0M24 59.76h0M25 59.76h0M26 59.76h0M27 59.76h0M28 59.76h0M65 59.76h0M66 59.76h0M67 59.76h0M68 59.76h0M69 59.76h0M70 59.76h0M71 59.76h0M72 59.76h0M73 59.76h0M16.5 60.62h0M17.5 60.62h0M18.5 60.62h0M19.5 60.62h0M20.5 60.62h0M21.5 60.62h0M22.5 60.62h0M23.5 60.62h0M24.5 60.62h0M25.5 60.62h0M26.5 60.62h0M27.5 60.62h0M65.5 60.62h0M66.5 60.62h0M67.5 60.62h0M68.5 60.62h0M69.5 60.62h0M70.5 60.62h0M71.5 60.62h0M72.5 60.62h0M73.5 60.62h0M16 61.49h0M17 61.49h0M18 61.49h0M19 61.49h0M20 61.49h0M21 61.49h0M22 61.49h0M23 61.49h0M24 61.49h0M25 61.49h0M26 61.49h0M27 61.49h0M66 61.49h0M67 61.49h0M68 61.49h0M69 61.49h0M70 61.49h0M71 61.49h0M72 61.49h0M16.5 62.35h0M17.5 62.35h0M18.5 62.35h0M19.5 62.35h0M20.5 62.35h0M21.5 62.35h0M22.5 62.35h0M23.5 62.35h0M24.5 62.35h0M25.5 62.35h0M26.5 62.35h0M66.5 62.35h0M67.5 62.35h0M68.5 62.35h0M69.5 62.35h0M70.5 62.35h0M71.5 62.35h0M16 63.22h0M17 63.22h0M18 63.22h0M19 63.22h0M20 63.22h0M21 63.22h0M22 63.22h0M23 63.22h0M24 63.22h0M25 63.22h0M26 63.22h0M66 63.22h0M67 63.22h0M68 63.22h0M69 63.22h0M70 63.22h0M71 63.22h0M16.5 64.09h0M17.5 64.09h0M18.5 64.09h0M19.5 64.09h0M20.5 64.09h0M21.5 64.09h0M22.5 64.09h0M23.5 64.09h0M24.5 64.09h0M25.5 64.09h0M66.5 64.09h0M67.5 64.09h0M16 64.95h0M17 64.95h0M18 64.95h0M19 64.95h0M20 64.95h0M21 64.95h0M22 64.95h0M23 64.95h0M15.5 65.82h0M16.5 65.82h0M17.5 65.82h0M18.5 65.82h0M19.5 65.82h0M20.5 65.82h0M21.5 65.82h0M22.5 65.82h0M23.5 65.82h0M15 66.68h0M16 66.68h0M17 66.68h0M18 66.68h0M19 66.68h0M20 66.68h0M21 66.68h0M22 66.68h0M23 66.68h0M15.5 67.55h0M16.5 67.55h0M17.5 67.55h0M18.5 67.55h0M19.5 67.55h0M20.5 67.55h0M15 68.42h0M16 68.42h0M17 68.42h0M18 68.42h0M19 68.42h0M20 68.42h0M21 68.42h0M15.5 69.28h0M16.5 69.28h0M17.5 69.28h0M18.5 69.28h0M16 70.15h0M17 70.15h0M18 70.15h0M19 70.15h0M20 70.15h0M15.5 71.01h0M16.5 71.01h0M17.5 71.01h0M18.5 71.01h0M15 71.88h0M16 71.88h0M17 71.88h0M18 71.88h0M19 71.88h0" stroke="#5B6F92" stroke-width=".44" stroke-linecap="round"/></svg>